#N canvas 524 22 736 434 10;
#X obj -160 81 inlet~ L;
#X obj -100 81 inlet~ R;
#X obj -42 81 inlet~ Ls;
#X obj 23 81 inlet~ Rs;
#X obj 87 81 inlet~ C;
#X obj -160 391 outlet~;
#X text -107 34 R = 1R+0.71C+0.71Rs;
#X obj -42 170 *~ 0.71;
#X obj -160 316 +~;
#X obj -100 317 +~;
#X obj -100 391 outlet~;
#X obj 268 106 \$1;
#X obj 268 58 loadbang;
#X obj 268 133 expr if($f1==0 \, 3000 \, $f1);
#X obj 152 81 inlet atenuattion;
#X obj 152 105 route att;
#X text -161 18 Downmix: L = 1L+0.71C+0.71Ls;
#X obj 23 169 *~ 0.71;
#X obj -42 118 biquad~;
#X obj 23 116 biquad~;
#X obj 152 128 unpack f f;
#X obj 152 155 lowpass;
#X obj 295 106 \$2;
#X text 267 36 arguments: frequency and bandwith of lowpass;
#X obj 295 156 expr if($f1==0 \, 10 \, $f1);
#X obj 268 180 pack f f;
#X obj 268 83 t b b;
#X obj 87 144 *~ 0.71;
#X text 134 215 see [biquad~] and [lowpass] for more info...;
#X obj -42 241 +~;
#X obj 23 240 +~;
#X obj 87 186 +~;
#X text 131 255 L;
#X text 161 254 R;
#X text 222 255 ls;
#X text 257 256 Rs;
#X text 188 254 C;
#X text 138 401 L;
#X text 183 401 R;
#X text 184 331 -3;
#X text 130 271 |;
#X text 130 283 |;
#X text 130 294 |;
#X text 130 305 |;
#X text 130 317 |;
#X text 130 329 |;
#X text 130 340 |;
#X text 130 351 |;
#X text 161 272 |;
#X text 161 284 |;
#X text 161 295 |;
#X text 161 306 |;
#X text 161 318 |;
#X text 161 330 |;
#X text 161 341 |;
#X text 161 352 |;
#X text 189 271 |;
#X text 189 282 |;
#X text 189 293 |;
#X text 189 304 |;
#X text 189 316 |;
#X text 190 345 |;
#X text 331 281 comment;
#X text 219 285 LPF;
#X text 256 286 LPF;
#X text 226 271 |;
#X text 257 272 |;
#X text 224 299 |;
#X text 224 311 |;
#X text 255 300 |;
#X text 255 312 |;
#X text 220 329 -6;
#X text 252 330 -6;
#X text 182 342 _;
#X text 170 342 _;
#X text 130 340 |;
#X text 130 351 |;
#X text 151 341 _;
#X text 139 341 _;
#X text 221 371 70%;
#X text 240 371 30%;
#X text 225 343 |;
#X text 225 359 |;
#X text 235 348 |;
#X text 235 359 |;
#X text 221 386 L;
#X text 243 387 R;
#X text 264 371 70%;
#X text 283 371 30%;
#X text 268 343 |;
#X text 268 359 |;
#X text 278 348 |;
#X text 278 359 |;
#X text 264 386 R;
#X text 286 387 L;
#X obj 151 182 print;
#X connect 0 0 8 0;
#X connect 1 0 9 0;
#X connect 2 0 18 0;
#X connect 3 0 19 0;
#X connect 4 0 27 0;
#X connect 7 0 29 0;
#X connect 8 0 5 0;
#X connect 9 0 10 0;
#X connect 11 0 13 0;
#X connect 12 0 26 0;
#X connect 13 0 25 0;
#X connect 14 0 15 0;
#X connect 15 0 20 0;
#X connect 17 0 30 0;
#X connect 18 0 7 0;
#X connect 19 0 17 0;
#X connect 20 0 21 0;
#X connect 20 1 21 1;
#X connect 21 0 19 0;
#X connect 21 0 18 0;
#X connect 21 0 95 0;
#X connect 22 0 24 0;
#X connect 24 0 25 1;
#X connect 25 0 20 0;
#X connect 26 0 11 0;
#X connect 26 1 22 0;
#X connect 27 0 31 0;
#X connect 29 0 8 1;
#X connect 30 0 9 1;
#X connect 31 0 30 1;
#X connect 31 0 29 1;
