#N canvas 0 22 722 469 10;
#X obj -62 -11 inlet~;
#X obj -60 127 vu 15 120 empty empty -1 -8 0 10 -66577 -1 1 0;
#X obj -5 -11 inlet~;
#X obj -3 127 vu 15 120 empty empty -1 -8 0 10 -66577 -1 1 0;
#X obj 52 -10 inlet~;
#X obj 54 128 vu 15 120 empty empty -1 -8 0 10 -66577 -1 1 0;
#X obj 109 -10 inlet~;
#X obj 111 128 vu 15 120 empty empty -1 -8 0 10 -66577 -1 1 0;
#X obj 167 -9 inlet~;
#X obj 169 129 vu 15 120 empty empty -1 -8 0 10 -66577 -1 1 0;
#X obj -30 266 outlet~;
#X obj 26 266 outlet~;
#X obj 82 266 outlet~;
#X obj 138 266 outlet~;
#X obj 198 265 outlet~;
#X obj -53 66 pvu~;
#X obj 7 66 pvu~;
#X obj 63 65 pvu~;
#X obj 123 65 pvu~;
#X obj 176 65 pvu~;
#X text 265 24 loadbang;
#X obj 265 49 loadbang;
#X msg 266 81 t_metro 30;
#X connect 0 0 15 0;
#X connect 0 0 10 0;
#X connect 2 0 16 0;
#X connect 2 0 11 0;
#X connect 4 0 17 0;
#X connect 4 0 12 0;
#X connect 6 0 18 0;
#X connect 6 0 13 0;
#X connect 8 0 19 0;
#X connect 8 0 14 0;
#X connect 15 0 1 0;
#X connect 16 0 3 0;
#X connect 17 0 5 0;
#X connect 18 0 7 0;
#X connect 19 0 9 0;
#X connect 21 0 22 0;
#X connect 22 0 15 0;
#X connect 22 0 16 0;
#X connect 22 0 17 0;
#X connect 22 0 18 0;
#X connect 22 0 19 0;
#X coords 0 -1 1 1 290 150 1 -64 105;
