#N canvas 0 22 498 403 10;
#X obj -61 16 inlet~;
#X obj 42 109 vu 15 120 empty empty -1 -8 0 10 -66577 -1 1 0;
#X obj -4 16 inlet~;
#X obj 99 109 vu 15 120 empty empty -1 -8 0 10 -66577 -1 1 0;
#X obj -51 318 outlet~;
#X obj 2 318 outlet~;
#X obj -51 102 vsl 15 128 0 1 0 0 empty empty empty 0 -9 0 10 -262144
-1 -1 12700 1;
#X obj -3 102 vsl 15 128 0 1 0 0 empty empty empty 0 -9 0 10 -262144
-1 -1 12700 1;
#X obj 174 54 spigot~;
#X obj 224 54 spigot~;
#X obj 18 108 tgl 15 0 empty empty empty 17 7 0 10 -262144 -1 -1 0
1;
#X text 19 123 B;
#X text 19 134 Y;
#X text 19 144 P;
#X text 19 155 A;
#X text 19 166 S;
#X text 19 177 S;
#X obj 174 103 *~;
#X obj 224 102 *~;
#X obj 174 173 pvu~;
#X obj 224 173 pvu~;
#X msg 284 111 t_metro 30;
#X obj 284 90 loadbang;
#X connect 0 0 8 0;
#X connect 2 0 9 0;
#X connect 6 0 17 1;
#X connect 7 0 18 1;
#X connect 8 0 17 0;
#X connect 8 1 4 0;
#X connect 8 1 19 0;
#X connect 9 0 18 0;
#X connect 9 1 5 0;
#X connect 9 1 20 0;
#X connect 10 0 8 1;
#X connect 10 0 9 1;
#X connect 17 0 4 0;
#X connect 17 0 19 0;
#X connect 18 0 5 0;
#X connect 18 0 20 0;
#X connect 19 0 1 0;
#X connect 20 0 3 0;
#X connect 21 0 19 0;
#X connect 21 0 20 0;
#X connect 22 0 21 0;
#X coords 0 -1 1 1 210 150 1 -64 85;
