#N canvas 0 22 636 303 10;
#X obj -61 16 inlet~;
#X obj -60 106 vu 15 120 empty empty -1 -8 0 10 -66577 -1 1 0;
#X obj -61 39 env~;
#X obj -61 59 rmstodb;
#X obj -4 16 inlet~;
#X obj -3 106 vu 15 120 empty empty -1 -8 0 10 -66577 -1 1 0;
#X obj -4 39 env~;
#X obj -4 59 rmstodb;
#X obj 53 17 inlet~;
#X obj 54 107 vu 15 120 empty empty -1 -8 0 10 -66577 -1 1 0;
#X obj 53 40 env~;
#X obj 53 60 rmstodb;
#X obj 110 17 inlet~;
#X obj 111 107 vu 15 120 empty empty -1 -8 0 10 -66577 -1 1 0;
#X obj 110 40 env~;
#X obj 110 60 rmstodb;
#X obj 168 18 inlet~;
#X obj 169 108 vu 15 120 empty empty -1 -8 0 10 -66577 -1 1 0;
#X obj 168 41 env~;
#X obj 168 61 rmstodb;
#X obj 225 18 inlet~;
#X obj 226 108 vu 15 120 empty empty -1 -8 0 10 -66577 -1 1 0;
#X obj 225 41 env~;
#X obj 225 61 rmstodb;
#X obj 282 19 inlet~;
#X obj 283 109 vu 15 120 empty empty -1 -8 0 10 -66577 -1 1 0;
#X obj 282 42 env~;
#X obj 282 62 rmstodb;
#X obj 339 19 inlet~;
#X obj 340 109 vu 15 120 empty empty -1 -8 0 10 -66577 -1 1 0;
#X obj 339 42 env~;
#X obj 339 62 rmstodb;
#X obj 394 19 inlet~;
#X obj 395 109 vu 15 120 empty empty -1 -8 0 10 -66577 -1 1 0;
#X obj 394 42 env~;
#X obj 394 62 rmstodb;
#X obj 451 19 inlet~;
#X obj 452 109 vu 15 120 empty empty -1 -8 0 10 -66577 -1 1 0;
#X obj 451 42 env~;
#X obj 451 62 rmstodb;
#X obj 86 264 dac~ 1 2 3 4 5 6 7 8 9 10;
#X connect 0 0 2 0;
#X connect 0 0 40 0;
#X connect 2 0 3 0;
#X connect 3 0 1 0;
#X connect 4 0 6 0;
#X connect 4 0 40 1;
#X connect 6 0 7 0;
#X connect 7 0 5 0;
#X connect 8 0 10 0;
#X connect 8 0 40 2;
#X connect 10 0 11 0;
#X connect 11 0 9 0;
#X connect 12 0 14 0;
#X connect 12 0 40 3;
#X connect 14 0 15 0;
#X connect 15 0 13 0;
#X connect 16 0 18 0;
#X connect 16 0 40 4;
#X connect 18 0 19 0;
#X connect 19 0 17 0;
#X connect 20 0 22 0;
#X connect 20 0 40 5;
#X connect 22 0 23 0;
#X connect 23 0 21 0;
#X connect 24 0 26 0;
#X connect 24 0 40 6;
#X connect 26 0 27 0;
#X connect 27 0 25 0;
#X connect 28 0 30 0;
#X connect 28 0 40 7;
#X connect 30 0 31 0;
#X connect 31 0 29 0;
#X connect 32 0 34 0;
#X connect 32 0 40 8;
#X connect 34 0 35 0;
#X connect 35 0 33 0;
#X connect 36 0 38 0;
#X connect 36 0 40 9;
#X connect 38 0 39 0;
#X connect 39 0 37 0;
#X coords 0 -1 1 1 570 150 1 -64 85;
