#N canvas 0 22 330 392 10;
#X obj -61 16 inlet~;
#X obj -60 106 vu 15 120 empty empty -1 -8 0 10 -66577 -1 1 0;
#X obj -61 39 env~;
#X obj -61 59 rmstodb;
#X obj -4 16 inlet~;
#X obj -3 106 vu 15 120 empty empty -1 -8 0 10 -66577 -1 1 0;
#X obj -4 39 env~;
#X obj -4 59 rmstodb;
#X obj 53 17 inlet~;
#X obj 54 107 vu 15 120 empty empty -1 -8 0 10 -66577 -1 1 0;
#X obj 53 40 env~;
#X obj 53 60 rmstodb;
#X obj 110 17 inlet~;
#X obj 111 107 vu 15 120 empty empty -1 -8 0 10 -66577 -1 1 0;
#X obj 110 40 env~;
#X obj 110 60 rmstodb;
#X obj 168 18 inlet~;
#X obj 169 108 vu 15 120 empty empty -1 -8 0 10 -66577 -1 1 0;
#X obj 168 41 env~;
#X obj 168 61 rmstodb;
#X obj -51 318 outlet~;
#X obj 2 318 outlet~;
#X obj 55 318 outlet~;
#X obj 108 318 outlet~;
#X obj 159 318 outlet~;
#X connect 0 0 2 0;
#X connect 0 0 20 0;
#X connect 2 0 3 0;
#X connect 3 0 1 0;
#X connect 4 0 6 0;
#X connect 4 0 21 0;
#X connect 6 0 7 0;
#X connect 7 0 5 0;
#X connect 8 0 10 0;
#X connect 8 0 22 0;
#X connect 10 0 11 0;
#X connect 11 0 9 0;
#X connect 12 0 14 0;
#X connect 12 0 23 0;
#X connect 14 0 15 0;
#X connect 15 0 13 0;
#X connect 16 0 18 0;
#X connect 16 0 24 0;
#X connect 18 0 19 0;
#X connect 19 0 17 0;
#X coords 0 -1 1 1 290 150 1 -64 85;
