#N canvas 126 57 607 361 10;
#X obj 316 6 loadbang;
#X obj 373 17 bng 15 250 50 0 empty empty empty 17 7 0 10 -262144 -1
-1;
#X obj 214 106 openpanel;
#X obj 316 34 \$1;
#X text 392 14 choose audio file;
#X text 392 35 play/stop audio file;
#X obj 10 10 r init_bang;
#X obj 10 100 readsf~ 5;
#X obj 10 150 outlet~;
#X obj 60 150 outlet~;
#X obj 110 150 outlet~;
#X obj 160 150 outlet~;
#X obj 210 150 outlet~;
#X msg 214 128 set open \$1;
#X obj 373 37 tgl 15 0 empty empty empty 17 7 0 10 -262144 -1 -1 0
1;
#N canvas 429 191 1003 709 generate_multichannel_patch 0;
#X obj 23 536 s pd-multichannel.player.pd;
#X msg 28 73 obj 10 100 readsf~ \$1 \;;
#X obj 506 280 inlet file;
#X obj 533 333 symbol;
#X msg 529 377 msg 10 50 open \$1;
#X obj 43 20 inlet nChannels;
#X msg 28 92 msg 30 75 0;
#X msg 28 112 msg 60 75 1;
#X obj 73 241 for++ 0;
#X obj 166 283 + 10;
#X obj 166 262 * 50;
#X obj 506 306 t b a;
#X msg 166 305 obj \$1 150 outlet~;
#X text 169 72 create player;
#X text 137 154 connect play and stop;
#X text 201 256 create outlet~ and connect;
#X obj 43 42 t b f b b b b f;
#X text 102 100 create stop and play;
#X obj 659 278 inlet play;
#X obj 659 374 tgl 15 0 empty empty empty 17 7 0 10 -262144 -1 -1 0
5;
#X obj 659 305 counter 0;
#X obj 810 377 tgl 15 0 empty empty empty 17 7 0 10 -262144 -1 -1 0
1;
#X obj 659 334 expr if($f1==0 \, 1 \, 0);
#X text 678 376 ainda n foi conectado;
#X obj 683 357 sel 1;
#X text 831 375 já foi conectado;
#X msg 39 143 connect 11 0 10 0;
#X msg 39 166 connect 12 0 10 0;
#X obj 116 307 + 13;
#X obj 71 336 pack f f;
#X obj 73 266 t f f;
#X msg 72 369 connect 10 \$1 \$2 0;
#X floatatom 123 241 5 0 0 0 - - -;
#X obj 93 205 - 1;
#X msg 507 429 connect 18 0 10 0;
#X msg 683 406 connect 6 0 18 0;
#X connect 1 0 0 0;
#X connect 2 0 11 0;
#X connect 3 0 4 0;
#X connect 4 0 0 0;
#X connect 5 0 16 0;
#X connect 6 0 0 0;
#X connect 7 0 0 0;
#X connect 8 0 10 0;
#X connect 8 0 30 0;
#X connect 8 0 32 0;
#X connect 9 0 12 0;
#X connect 10 0 9 0;
#X connect 11 0 34 0;
#X connect 11 1 3 0;
#X connect 12 0 0 0;
#X connect 16 0 8 0;
#X connect 16 1 33 0;
#X connect 16 2 27 0;
#X connect 16 3 26 0;
#X connect 16 4 7 0;
#X connect 16 5 6 0;
#X connect 16 6 1 0;
#X connect 18 0 20 0;
#X connect 20 0 22 0;
#X connect 20 0 21 0;
#X connect 22 0 19 0;
#X connect 22 0 24 0;
#X connect 24 0 35 0;
#X connect 26 0 0 0;
#X connect 27 0 0 0;
#X connect 28 0 29 1;
#X connect 29 0 31 0;
#X connect 30 0 29 0;
#X connect 30 1 28 0;
#X connect 31 0 0 0;
#X connect 33 0 8 1;
#X connect 34 0 0 0;
#X connect 35 0 0 0;
#X restore 321 195 pd generate_multichannel_patch;
#X obj 372 84 t f b;
#X msg 10 50 open /tmp/arquivo_5.1.wav;
#X connect 0 0 3 0;
#X connect 1 0 2 0;
#X connect 2 0 13 0;
#X connect 7 0 8 0;
#X connect 7 1 9 0;
#X connect 7 2 10 0;
#X connect 7 3 11 0;
#X connect 7 4 12 0;
#X connect 13 0 17 0;
#X connect 14 0 16 0;
#X connect 16 0 7 0;
#X connect 16 1 17 0;
#X connect 17 0 7 0;
#X coords 0 -1 1 1 150 60 1 370 0;
