#N canvas 0 22 752 198 10;
#X obj 173 51 \$1;
#X obj 173 27 loadbang;
#X text 204 52 a little dollar-one value to connect \; ) to an instance
of mixer.faders;
#X floatatom 167 80 5 0 0 0 - - -;
#X obj 17 116 inlet;
#X obj 121 118 inlet;
#X obj 69 119 inlet;
#X obj 178 120 inlet;
#X obj 242 116 inlet;
#X obj 320 117 inlet;
#X obj 404 117 inlet;
#X obj 482 119 inlet;
#X obj 557 118 inlet;
#X obj 635 119 inlet;
#X obj 17 149 send LC;
#X obj 121 149 send LdC;
#X obj 69 149 send RC;
#X obj 178 149 send RdC;
#X obj 234 148 send LSC;
#X obj 319 148 send RSC;
#X obj 404 148 send LSdC;
#X obj 495 148 send RSdC;
#X obj 586 148 send CC;
#X obj 665 148 send CSdC;
#X connect 0 0 3 0;
#X connect 1 0 0 0;
#X connect 4 0 14 0;
#X connect 5 0 15 0;
#X connect 6 0 16 0;
#X connect 7 0 17 0;
#X connect 8 0 18 0;
#X connect 9 0 19 0;
#X connect 10 0 20 0;
#X connect 11 0 21 0;
#X connect 12 0 22 0;
#X connect 13 0 23 0;
